<?xml version="1.0" encoding="UTF-8" standalone="no"?>
<!-- Created with Inkscape (http://www.inkscape.org/) -->

<svg
   xmlns:dc="http://purl.org/dc/elements/1.1/"
   xmlns:cc="http://creativecommons.org/ns#"
   xmlns:rdf="http://www.w3.org/1999/02/22-rdf-syntax-ns#"
   xmlns:svg="http://www.w3.org/2000/svg"
   xmlns="http://www.w3.org/2000/svg"
   xmlns:sodipodi="http://sodipodi.sourceforge.net/DTD/sodipodi-0.dtd"
   xmlns:inkscape="http://www.inkscape.org/namespaces/inkscape"
   width="210mm"
   height="297mm"
   viewBox="0 0 210 297"
   version="1.1"
   id="svg8"
   enable-background="new"
   sodipodi:docname="logo.svg"
   inkscape:export-filename="/home/carolina/favicon.png"
   inkscape:export-xdpi="2.1715271"
   inkscape:export-ydpi="2.1715271"
   inkscape:version="0.92.5 (2060ec1f9f, 2020-04-08)">
  <defs
     id="defs2" />
  <sodipodi:namedview
     id="base"
     pagecolor="#ffffff"
     bordercolor="#666666"
     borderopacity="1.0"
     inkscape:pageopacity="0.0"
     inkscape:pageshadow="2"
     inkscape:zoom="0.35"
     inkscape:cx="278.22607"
     inkscape:cy="559.87927"
     inkscape:document-units="mm"
     inkscape:current-layer="layer1"
     showgrid="false"
     inkscape:snap-global="true"
     inkscape:window-width="1848"
     inkscape:window-height="1009"
     inkscape:window-x="72"
     inkscape:window-y="34"
     inkscape:window-maximized="1" />
  <metadata
     id="metadata5">
    <rdf:RDF>
      <cc:Work
         rdf:about="">
        <dc:format>image/svg+xml</dc:format>
        <dc:type
           rdf:resource="http://purl.org/dc/dcmitype/StillImage" />
      </cc:Work>
    </rdf:RDF>
  </metadata>
  <g
     inkscape:label="Capa 1"
     inkscape:groupmode="layer"
     id="layer1"
     style="opacity:1">
    <circle
       id="path3715"
       cx="95.077698"
       cy="155.25894"
       r="86.556549"
       style="fill:#0b1b15;fill-opacity:0;stroke-width:0.26458332" />
    <path
       d="M 88.399452,241.37182 C 76.595305,240.18776 67.449032,237.71946 57.972369,233.16045 48.949847,228.81992 42.212285,224.10897 34.967142,217.07501 21.109651,203.62145 12.464428,186.70697 9.5536275,167.35318 c -0.938123,-6.23755 -0.938123,-17.95294 0,-24.19048 C 12.490409,123.63616 21.114405,106.85591 35.243991,93.175353 71.483713,58.087317 130.20372,61.585196 162.03359,100.72806 c 19.33534,23.77767 24.67435,56.50975 13.86257,84.98778 -11.66709,30.73091 -39.89464,52.33139 -72.5378,55.50787 -3.840765,0.37375 -11.912715,0.45366 -14.958908,0.14811 z"
       id="path3741"
       inkscape:connector-curvature="0"
       style="fill:none;stroke-width:0.37797621" />
    <path
       style="fill:none;stroke-width:0.37797621"
       d="M 88.059274,241.39366 C 76.351544,240.1615 66.90294,237.52145 57.064567,232.73337 31.212265,220.15171 13.226634,195.0432 9.4545744,166.26831 8.2943212,157.41739 8.8430287,145.19304 10.79592,136.38521 c 1.876131,-8.46164 6.319142,-19.31333 10.920894,-26.6734 13.479952,-21.559923 35.403554,-35.934209 60.929223,-39.948462 6.405173,-1.007298 19.627183,-0.915426 26.012943,0.180745 24.37704,4.184541 44.951,17.461928 58.40072,37.688847 9.49944,14.28614 14.2565,30.17746 14.2565,47.625 0,19.21983 -5.76547,36.54732 -17.2741,51.91545 -3.35601,4.48146 -11.05405,12.42869 -15.16266,15.65346 -11.7311,9.20754 -25.34361,15.22501 -40.03148,17.69609 -4.39527,0.73946 -17.013926,1.26798 -20.788686,0.87072 z"
       id="path4548"
       inkscape:connector-curvature="0" />
    <path
       style="fill:none;stroke-width:0.37797621"
       d="M 88.059274,241.39366 C 76.351544,240.1615 66.90294,237.52145 57.064567,232.73337 31.212265,220.15171 13.226634,195.0432 9.4545744,166.26831 8.2943212,157.41739 8.8430287,145.19304 10.79592,136.38521 c 1.876131,-8.46164 6.319142,-19.31333 10.920894,-26.6734 13.479952,-21.559923 35.403554,-35.934209 60.929223,-39.948462 6.405173,-1.007298 19.627183,-0.915426 26.012943,0.180745 24.37704,4.184541 44.951,17.461928 58.40072,37.688847 9.49944,14.28614 14.2565,30.17746 14.2565,47.625 0,19.21983 -5.76547,36.54732 -17.2741,51.91545 -3.35601,4.48146 -11.05405,12.42869 -15.16266,15.65346 -11.7311,9.20754 -25.34361,15.22501 -40.03148,17.69609 -4.39527,0.73946 -17.013926,1.26798 -20.788686,0.87072 z"
       id="path4550"
       inkscape:connector-curvature="0" />
    <path
       style="fill:#0b1b15;fill-opacity:0;stroke-width:0.37797621"
       d="M 88.059274,241.39366 C 76.351544,240.1615 66.90294,237.52145 57.064567,232.73337 31.212265,220.15171 13.226634,195.0432 9.4545744,166.26831 8.2943212,157.41739 8.8430287,145.19304 10.79592,136.38521 c 1.876131,-8.46164 6.319142,-19.31333 10.920894,-26.6734 13.479952,-21.559923 35.403554,-35.934209 60.929223,-39.948462 6.405173,-1.007298 19.627183,-0.915426 26.012943,0.180745 24.37704,4.184541 44.951,17.461928 58.40072,37.688847 9.49944,14.28614 14.2565,30.17746 14.2565,47.625 0,19.21983 -5.76547,36.54732 -17.2741,51.91545 -3.35601,4.48146 -11.05405,12.42869 -15.16266,15.65346 -11.7311,9.20754 -25.34361,15.22501 -40.03148,17.69609 -4.39527,0.73946 -17.013926,1.26798 -20.788686,0.87072 z"
       id="path4552"
       inkscape:connector-curvature="0" />
    <path
       style="fill:#0b1b15;fill-opacity:0;stroke-width:0.37797621"
       d="M 88.059274,241.39366 C 76.351544,240.1615 66.90294,237.52145 57.064567,232.73337 31.212265,220.15171 13.226634,195.0432 9.4545744,166.26831 8.2943212,157.41739 8.8430287,145.19304 10.79592,136.38521 c 1.876131,-8.46164 6.319142,-19.31333 10.920894,-26.6734 13.479952,-21.559923 35.403554,-35.934209 60.929223,-39.948462 6.405173,-1.007298 19.627183,-0.915426 26.012943,0.180745 24.37704,4.184541 44.951,17.461928 58.40072,37.688847 9.49944,14.28614 14.2565,30.17746 14.2565,47.625 0,19.21983 -5.76547,36.54732 -17.2741,51.91545 -3.35601,4.48146 -11.05405,12.42869 -15.16266,15.65346 -11.7311,9.20754 -25.34361,15.22501 -40.03148,17.69609 -4.39527,0.73946 -17.013926,1.26798 -20.788686,0.87072 z"
       id="path4554"
       inkscape:connector-curvature="0" />
    <path
       style="fill:#0b1b15;fill-opacity:0;stroke-width:0.37797621"
       d="M 88.059274,241.39366 C 76.351544,240.1615 66.90294,237.52145 57.064567,232.73337 31.212265,220.15171 13.226634,195.0432 9.4545744,166.26831 8.2943212,157.41739 8.8430287,145.19304 10.79592,136.38521 c 1.876131,-8.46164 6.319142,-19.31333 10.920894,-26.6734 13.479952,-21.559923 35.403554,-35.934209 60.929223,-39.948462 6.405173,-1.007298 19.627183,-0.915426 26.012943,0.180745 24.37704,4.184541 44.951,17.461928 58.40072,37.688847 9.49944,14.28614 14.2565,30.17746 14.2565,47.625 0,19.21983 -5.76547,36.54732 -17.2741,51.91545 -3.35601,4.48146 -11.05405,12.42869 -15.16266,15.65346 -11.7311,9.20754 -25.34361,15.22501 -40.03148,17.69609 -4.39527,0.73946 -17.013926,1.26798 -20.788686,0.87072 z"
       id="path4556"
       inkscape:connector-curvature="0" />
    <path
       style="fill:#0b1b15;fill-opacity:0;stroke-width:0.37797621"
       d="M 88.059274,241.39366 C 76.351544,240.1615 66.90294,237.52145 57.064567,232.73337 31.212265,220.15171 13.226634,195.0432 9.4545744,166.26831 8.2943212,157.41739 8.8430287,145.19304 10.79592,136.38521 c 1.876131,-8.46164 6.319142,-19.31333 10.920894,-26.6734 13.479952,-21.559923 35.403554,-35.934209 60.929223,-39.948462 6.405173,-1.007298 19.627183,-0.915426 26.012943,0.180745 24.37704,4.184541 44.951,17.461928 58.40072,37.688847 9.49944,14.28614 14.2565,30.17746 14.2565,47.625 0,19.21983 -5.76547,36.54732 -17.2741,51.91545 -3.35601,4.48146 -11.05405,12.42869 -15.16266,15.65346 -11.7311,9.20754 -25.34361,15.22501 -40.03148,17.69609 -4.39527,0.73946 -17.013926,1.26798 -20.788686,0.87072 z"
       id="path4558"
       inkscape:connector-curvature="0" />
    <path
       style="fill:#0b1b15;fill-opacity:0;stroke-width:0.37797621"
       d="M 88.059274,241.39366 C 76.351544,240.1615 66.90294,237.52145 57.064567,232.73337 31.212265,220.15171 13.226634,195.0432 9.4545744,166.26831 8.2943212,157.41739 8.8430287,145.19304 10.79592,136.38521 c 1.876131,-8.46164 6.319142,-19.31333 10.920894,-26.6734 13.479952,-21.559923 35.403554,-35.934209 60.929223,-39.948462 6.405173,-1.007298 19.627183,-0.915426 26.012943,0.180745 24.37704,4.184541 44.951,17.461928 58.40072,37.688847 9.49944,14.28614 14.2565,30.17746 14.2565,47.625 0,19.21983 -5.76547,36.54732 -17.2741,51.91545 -3.35601,4.48146 -11.05405,12.42869 -15.16266,15.65346 -11.7311,9.20754 -25.34361,15.22501 -40.03148,17.69609 -4.39527,0.73946 -17.013926,1.26798 -20.788686,0.87072 z"
       id="path4560"
       inkscape:connector-curvature="0" />
    <path
       style="fill:#0b1b15;fill-opacity:0;stroke-width:0.37797621"
       d="M 88.059274,241.39366 C 76.351544,240.1615 66.90294,237.52145 57.064567,232.73337 31.212265,220.15171 13.226634,195.0432 9.4545744,166.26831 8.2943212,157.41739 8.8430287,145.19304 10.79592,136.38521 c 1.876131,-8.46164 6.319142,-19.31333 10.920894,-26.6734 13.479952,-21.559923 35.403554,-35.934209 60.929223,-39.948462 6.405173,-1.007298 19.627183,-0.915426 26.012943,0.180745 24.37704,4.184541 44.951,17.461928 58.40072,37.688847 9.49944,14.28614 14.2565,30.17746 14.2565,47.625 0,19.21983 -5.76547,36.54732 -17.2741,51.91545 -3.35601,4.48146 -11.05405,12.42869 -15.16266,15.65346 -11.7311,9.20754 -25.34361,15.22501 -40.03148,17.69609 -4.39527,0.73946 -17.013926,1.26798 -20.788686,0.87072 z"
       id="path4562"
       inkscape:connector-curvature="0" />
    <path
       style="fill:#0b1b15;fill-opacity:0;stroke-width:0.26726952"
       d="m 89.549487,241.5258 c -17.807284,-1.22865 -34.434965,-7.66953 -48.382052,-18.74122 -3.514582,-2.79 -9.520496,-8.66729 -12.362886,-12.09813 C 13.393556,192.08502 6.4872634,168.87247 9.2717508,145.03532 12.913461,113.85974 33.564874,86.886459 62.838371,75.070739 c 15.536037,-6.270842 32.903416,-7.837398 49.591349,-4.473191 13.03341,2.627471 26.11603,8.786521 36.8751,17.3601 5.80732,4.627677 13.17965,12.686122 17.49386,19.121932 17.99987,26.85172 19.56401,61.72305 4.02805,89.80256 -12.76034,23.06288 -35.4494,39.20546 -61.21619,43.55348 -6.30015,1.06312 -14.217471,1.49337 -20.061053,1.09018 z"
       id="path4564"
       inkscape:connector-curvature="0" />
    <circle
       style="fill:#00ffa2;fill-opacity:0;stroke-width:0.26458332"
       id="path4570"
       cx="110.00776"
       cy="159.60565"
       r="68.224701" />
    <path
       style="opacity:1;fill:#00ffa2;fill-opacity:1;stroke-width:0.70625943"
       d="m 152.23987,55.524703 a 46.738116,105.20363 40.10559 0 0 -53.150759,21.311361 105.20363,46.738116 30.551262 0 1 35.824689,18.349267 105.20363,46.738116 30.551262 0 1 31.92932,24.306519 46.738116,105.20363 40.10559 0 0 1.55856,-56.612556 46.738116,105.20363 40.10559 0 0 -16.16181,-7.354591 z m 14.60325,63.967147 a 46.738116,105.20363 40.10559 0 1 -36.78484,56.85545 46.738116,105.20363 40.10559 0 1 -12.57649,12.99869 105.20363,46.738116 30.551262 0 0 77.09762,-1.42834 105.20363,46.738116 30.551262 0 0 -27.73629,-68.4258 z m -49.36133,69.85414 A 105.20363,46.738116 30.551262 0 1 76.320992,168.93948 105.20363,46.738116 30.551262 0 1 41.251302,141.58043 46.738116,105.20363 40.10559 0 0 28.708912,219.79375 46.738116,105.20363 40.10559 0 0 117.48179,189.34599 Z M 41.251302,141.58043 a 46.738116,105.20363 40.10559 0 1 25.80101,-35.2547 46.738116,105.20363 40.10559 0 1 32.036799,-29.489666 105.20363,46.738116 30.551262 0 0 -82.433719,-0.628904 105.20363,46.738116 30.551262 0 0 24.59591,65.37327 z"
       id="path4578-6"
       inkscape:connector-curvature="0"
       inkscape:export-filename="/home/carolina/path4578-6.png"
       inkscape:export-xdpi="2.1700542"
       inkscape:export-ydpi="2.1700542" />
  </g>
</svg>
